<?xml version="1.0" standalone="no"?>
<!DOCTYPE svg PUBLIC "-//W3C//DTD SVG 20010904//EN" "http://www.w3.org/TR/2001/REC-SVG-20010904/DTD/svg10.dtd">
<svg version="1.0" xmlns="http://www.w3.org/2000/svg"
	width="225.000000pt" height="225.000000pt" viewBox="0 0 225.000000 225.000000"
	preserveAspectRatio="xMidYMid meet">
	<metadata>
Created by potrace 1.16, written by Peter Selinger 2001-2019
</metadata>
	<g transform="translate(0.000000,225.000000) scale(0.100000,-0.100000)"
		fill="#2d509e" stroke="none">
		<path d="M1000 2099 c-189 -23 -376 -99 -503 -204 -84 -70 -171 -179 -223
-278 -48 -94 -50 -91 107 -151 63 -24 126 -49 140 -54 26 -10 28 -8 59 52 106
210 291 318 545 319 183 0 316 -51 430 -167 39 -39 81 -92 95 -118 14 -27 28
-48 31 -48 4 0 69 28 145 63 168 76 168 77 95 187 -100 153 -276 290 -441 345
-152 51 -339 72 -480 54z" />
		<path d="M1068 1619 l-3 -52 -61 -17 c-34 -9 -82 -29 -107 -43 -108 -64 -138
-215 -65 -320 37 -52 127 -85 286 -107 156 -21 212 -54 212 -125 0 -80 -64
-120 -195 -120 -105 0 -160 20 -217 79 l-35 36 -61 -27 c-34 -14 -62 -30 -62
-35 0 -23 64 -99 107 -127 61 -41 131 -61 210 -61 35 0 63 -4 63 -8 0 -5 -16
-16 -35 -25 -30 -14 -35 -21 -35 -52 l0 -35 70 0 70 0 0 59 0 58 64 16 c151
37 223 129 214 272 -8 126 -90 190 -283 221 -187 29 -207 35 -237 64 -35 35
-36 69 -3 109 33 38 83 55 165 54 70 0 124 -18 176 -58 l33 -25 55 24 c31 14
56 31 56 38 0 27 -62 88 -117 114 -41 20 -79 30 -132 34 l-76 6 40 19 c33 17
40 25 40 50 l0 30 -67 3 -67 3 -3 -52z" />
		<path d="M1862 1367 l-134 -61 7 -56 c11 -87 7 -222 -9 -302 -33 -157 -145
-326 -264 -396 -60 -34 -155 -68 -220 -77 l-52 -7 2 -156 3 -157 70 2 c214 6
474 140 615 316 69 87 145 242 176 362 43 166 43 424 1 553 -9 29 -18 37 -37
39 -14 1 -85 -26 -158 -60z" />
		<path d="M193 1362 c-20 -13 -33 -106 -33 -239 0 -520 315 -902 796 -968 80
-10 84 -3 84 169 l0 142 -76 17 c-217 47 -373 203 -436 434 -16 59 -21 110
-22 210 l-1 132 -147 55 c-82 31 -149 56 -151 56 -1 0 -8 -4 -14 -8z" />
	</g>
</svg>
