<svg id="svg" version="1.1" xmlns="http://www.w3.org/2000/svg" xmlns:xlink="http://www.w3.org/1999/xlink" width="400" height="400" viewBox="0, 0, 400,400"><g id="svgg"><path id="path0" d="M115.321 77.877 C 113.385 79.789,111.440 81.838,111.000 82.429 C 110.560 83.020,109.197 84.830,107.972 86.452 C 104.473 91.082,103.082 93.163,101.215 96.559 C 100.260 98.297,98.696 100.886,97.739 102.312 C 96.783 103.739,95.997 105.107,95.993 105.353 C 95.989 105.599,95.449 106.592,94.793 107.560 C 94.137 108.528,93.600 109.581,93.600 109.899 C 93.600 110.217,92.976 111.792,92.214 113.399 C 91.451 115.005,90.444 117.283,89.975 118.460 C 89.506 119.637,88.583 121.950,87.923 123.600 C 86.588 126.936,85.489 130.487,84.578 134.400 C 84.245 135.830,83.796 137.720,83.581 138.600 C 80.512 151.108,79.817 157.976,80.123 172.800 C 80.264 179.642,80.576 184.889,81.002 187.600 C 81.365 189.910,81.807 192.970,81.985 194.400 C 82.162 195.830,82.688 197.952,83.154 199.115 C 83.619 200.278,84.000 201.584,84.000 202.017 C 84.000 203.024,86.765 212.869,87.196 213.400 C 87.375 213.620,87.726 214.610,87.976 215.600 C 88.226 216.590,88.719 218.120,89.072 219.000 C 90.838 223.396,98.818 239.600,99.217 239.600 C 99.461 239.600,102.000 243.449,102.000 243.819 C 102.000 244.075,104.896 248.574,105.206 248.800 C 105.357 248.910,105.982 249.800,106.594 250.778 C 109.436 255.314,122.598 269.496,128.029 273.873 C 129.443 275.013,131.046 276.363,131.590 276.873 C 132.980 278.174,134.835 279.506,135.934 279.993 C 136.447 280.220,138.210 281.439,139.852 282.703 C 141.493 283.966,143.632 285.450,144.605 286.000 C 145.577 286.550,147.594 287.700,149.086 288.555 C 156.764 292.955,167.381 298.000,168.963 298.000 C 169.248 298.000,170.327 298.450,171.362 299.000 C 172.396 299.550,173.591 300.000,174.017 300.000 C 174.443 300.000,175.738 300.363,176.896 300.806 C 178.053 301.249,180.260 301.808,181.800 302.048 C 183.340 302.287,185.212 302.737,185.961 303.047 C 186.709 303.357,189.049 303.800,191.161 304.032 C 193.272 304.264,195.720 304.633,196.600 304.852 C 197.480 305.072,199.010 305.445,200.000 305.683 C 203.740 306.580,230.902 306.277,234.800 305.295 C 236.670 304.824,239.730 304.249,241.600 304.018 C 243.470 303.787,245.810 303.339,246.800 303.023 C 247.790 302.708,249.907 302.256,251.505 302.020 C 254.869 301.523,258.706 300.390,262.400 298.801 C 263.830 298.186,266.260 297.197,267.800 296.602 C 269.340 296.007,272.274 294.728,274.320 293.760 C 276.365 292.792,278.141 292.000,278.265 292.000 C 278.553 292.000,284.077 288.647,286.265 287.144 C 287.181 286.515,288.053 286.000,288.202 286.000 C 289.855 286.000,303.395 275.760,308.783 270.435 C 313.336 265.936,313.958 267.202,300.593 253.747 L 289.247 242.325 287.537 243.662 C 285.754 245.057,284.015 246.553,280.615 249.616 C 277.670 252.270,274.039 254.911,271.277 256.408 C 269.662 257.283,268.803 257.802,267.046 258.967 C 265.324 260.108,260.676 262.397,260.079 262.399 C 259.793 262.399,258.893 262.751,258.079 263.181 C 254.275 265.190,248.388 267.319,244.701 268.018 C 243.657 268.217,242.002 268.744,241.023 269.189 C 240.045 269.635,238.849 270.000,238.366 270.000 C 237.884 270.000,235.309 270.399,232.644 270.886 C 226.164 272.072,206.939 272.201,201.955 271.093 C 200.281 270.721,197.581 270.299,195.955 270.157 C 194.279 270.010,192.481 269.592,191.800 269.190 C 191.140 268.800,189.520 268.274,188.200 268.022 C 185.810 267.564,184.943 267.264,180.000 265.186 C 178.570 264.585,176.050 263.582,174.400 262.957 C 171.583 261.890,167.526 259.947,166.609 259.225 C 166.384 259.048,164.940 258.241,163.400 257.431 C 161.860 256.622,160.060 255.458,159.400 254.843 C 158.740 254.229,157.570 253.306,156.800 252.792 C 149.906 248.187,137.148 235.132,132.084 227.500 C 129.078 222.968,126.567 218.700,125.321 216.000 C 124.560 214.350,123.518 212.100,123.005 211.000 C 120.783 206.228,120.426 205.296,120.168 203.597 C 120.018 202.608,119.574 201.080,119.183 200.200 C 118.792 199.320,118.263 197.450,118.008 196.043 C 117.753 194.637,117.274 193.074,116.944 192.570 C 116.603 192.050,116.182 189.937,115.969 187.680 C 115.764 185.494,115.414 182.826,115.192 181.753 C 114.264 177.258,114.240 162.550,115.152 157.614 C 115.619 155.092,116.000 152.376,116.000 151.578 C 116.000 150.780,116.282 149.244,116.627 148.164 C 117.201 146.364,118.398 142.120,119.607 137.600 C 119.872 136.610,120.438 134.720,120.865 133.400 C 121.292 132.080,121.750 130.550,121.883 130.000 C 122.015 129.450,122.546 128.443,123.062 127.762 C 123.578 127.081,124.000 126.407,124.000 126.264 C 124.000 125.222,128.154 117.715,131.420 112.854 C 132.509 111.233,133.671 109.502,134.003 109.006 C 134.335 108.510,136.045 106.444,137.803 104.416 C 139.561 102.387,141.583 99.939,142.295 98.976 L 143.589 97.224 142.427 95.512 C 141.788 94.570,136.835 89.435,131.420 84.100 C 119.459 72.314,120.534 72.730,115.321 77.877 M153.000 131.739 C 144.725 133.858,145.844 140.165,156.065 149.000 C 162.042 154.167,174.485 157.228,179.468 154.758 C 183.889 152.566,183.703 146.406,179.074 141.692 C 171.957 134.445,160.104 129.920,153.000 131.739 M159.400 168.774 C 153.747 169.916,151.540 170.598,148.652 172.096 C 144.403 174.300,142.381 176.181,141.436 178.807 L 140.691 180.880 141.815 183.231 C 143.294 186.325,146.393 187.774,152.400 188.182 C 162.393 188.859,171.142 186.343,176.395 181.280 C 179.400 178.383,179.243 175.077,175.934 171.565 C 173.968 169.479,164.131 167.818,159.400 168.774 M181.072 195.873 C 180.011 196.197,178.501 196.898,177.716 197.431 C 176.931 197.964,176.132 198.400,175.940 198.400 C 174.553 198.400,166.679 205.387,165.122 208.000 C 164.663 208.770,163.866 210.036,163.350 210.813 C 159.360 216.823,159.671 222.780,164.089 224.985 C 169.768 227.818,184.297 218.841,188.100 210.150 C 188.377 209.517,188.899 208.550,189.262 208.000 C 194.087 200.674,189.172 193.396,181.072 195.873 M233.861 204.134 C 230.972 205.271,229.570 211.851,231.106 217.063 C 231.549 218.568,232.027 220.303,232.168 220.917 C 233.690 227.561,242.726 237.930,247.575 238.597 C 253.003 239.343,256.609 233.171,254.604 226.564 C 254.277 225.484,254.006 224.150,254.002 223.600 C 253.998 223.050,253.746 222.122,253.441 221.539 C 253.137 220.955,252.659 219.785,252.381 218.939 C 252.102 218.092,251.568 216.950,251.194 216.400 C 250.821 215.850,249.907 214.358,249.163 213.084 C 245.250 206.379,238.374 202.357,233.861 204.134 M204.708 210.073 C 201.504 213.355,200.154 216.272,198.540 223.400 C 197.617 227.475,197.979 238.269,199.092 239.885 C 199.515 240.498,200.083 241.559,200.355 242.243 C 203.619 250.444,213.783 243.307,216.641 230.807 C 219.447 218.537,216.417 208.398,209.844 208.066 L 206.815 207.913 204.708 210.073 " stroke="none" fill="#f0faf6" fill-rule="evenodd"></path><path id="path1" d="M0.000 200.000 L 0.000 400.000 200.000 400.000 L 400.000 400.000 400.000 200.000 L 400.000 0.000 200.000 0.000 L 0.000 0.000 0.000 200.000 M131.420 84.100 C 136.835 89.435,141.788 94.570,142.427 95.512 L 143.589 97.224 142.295 98.976 C 141.583 99.939,139.561 102.387,137.803 104.416 C 136.045 106.444,134.335 108.510,134.003 109.006 C 133.671 109.502,132.509 111.233,131.420 112.854 C 128.154 117.715,124.000 125.222,124.000 126.264 C 124.000 126.407,123.578 127.081,123.062 127.762 C 122.546 128.443,122.015 129.450,121.883 130.000 C 121.750 130.550,121.292 132.080,120.865 133.400 C 120.438 134.720,119.872 136.610,119.607 137.600 C 118.398 142.120,117.201 146.364,116.627 148.164 C 116.282 149.244,116.000 150.780,116.000 151.578 C 116.000 152.376,115.619 155.092,115.152 157.614 C 114.240 162.550,114.264 177.258,115.192 181.753 C 115.414 182.826,115.764 185.494,115.969 187.680 C 116.182 189.937,116.603 192.050,116.944 192.570 C 117.274 193.074,117.753 194.637,118.008 196.043 C 118.263 197.450,118.792 199.320,119.183 200.200 C 119.574 201.080,120.018 202.608,120.168 203.597 C 120.426 205.296,120.783 206.228,123.005 211.000 C 123.518 212.100,124.560 214.350,125.321 216.000 C 126.567 218.700,129.078 222.968,132.084 227.500 C 137.148 235.132,149.906 248.187,156.800 252.792 C 157.570 253.306,158.740 254.229,159.400 254.843 C 160.060 255.458,161.860 256.622,163.400 257.431 C 164.940 258.241,166.384 259.048,166.609 259.225 C 167.526 259.947,171.583 261.890,174.400 262.957 C 176.050 263.582,178.570 264.585,180.000 265.186 C 184.943 267.264,185.810 267.564,188.200 268.022 C 189.520 268.274,191.140 268.800,191.800 269.190 C 192.481 269.592,194.279 270.010,195.955 270.157 C 197.581 270.299,200.281 270.721,201.955 271.093 C 206.939 272.201,226.164 272.072,232.644 270.886 C 235.309 270.399,237.884 270.000,238.366 270.000 C 238.849 270.000,240.045 269.635,241.023 269.189 C 242.002 268.744,243.657 268.217,244.701 268.018 C 248.388 267.319,254.275 265.190,258.079 263.181 C 258.893 262.751,259.793 262.399,260.079 262.399 C 260.676 262.397,265.324 260.108,267.046 258.967 C 268.803 257.802,269.662 257.283,271.277 256.408 C 274.039 254.911,277.670 252.270,280.615 249.616 C 284.015 246.553,285.754 245.057,287.537 243.662 L 289.247 242.325 300.593 253.747 C 313.958 267.202,313.336 265.936,308.783 270.435 C 303.395 275.760,289.855 286.000,288.202 286.000 C 288.053 286.000,287.181 286.515,286.265 287.144 C 284.077 288.647,278.553 292.000,278.265 292.000 C 278.141 292.000,276.365 292.792,274.320 293.760 C 272.274 294.728,269.340 296.007,267.800 296.602 C 266.260 297.197,263.830 298.186,262.400 298.801 C 258.706 300.390,254.869 301.523,251.505 302.020 C 249.907 302.256,247.790 302.708,246.800 303.023 C 245.810 303.339,243.470 303.787,241.600 304.018 C 239.730 304.249,236.670 304.824,234.800 305.295 C 230.902 306.277,203.740 306.580,200.000 305.683 C 199.010 305.445,197.480 305.072,196.600 304.852 C 195.720 304.633,193.272 304.264,191.161 304.032 C 189.049 303.800,186.709 303.357,185.961 303.047 C 185.212 302.737,183.340 302.287,181.800 302.048 C 180.260 301.808,178.053 301.249,176.896 300.806 C 175.738 300.363,174.443 300.000,174.017 300.000 C 173.591 300.000,172.396 299.550,171.362 299.000 C 170.327 298.450,169.248 298.000,168.963 298.000 C 167.381 298.000,156.764 292.955,149.086 288.555 C 147.594 287.700,145.577 286.550,144.605 286.000 C 143.632 285.450,141.493 283.966,139.852 282.703 C 138.210 281.439,136.447 280.220,135.934 279.993 C 134.835 279.506,132.980 278.174,131.590 276.873 C 131.046 276.363,129.443 275.013,128.029 273.873 C 122.598 269.496,109.436 255.314,106.594 250.778 C 105.982 249.800,105.357 248.910,105.206 248.800 C 104.896 248.574,102.000 244.075,102.000 243.819 C 102.000 243.449,99.461 239.600,99.217 239.600 C 98.818 239.600,90.838 223.396,89.072 219.000 C 88.719 218.120,88.226 216.590,87.976 215.600 C 87.726 214.610,87.375 213.620,87.196 213.400 C 86.765 212.869,84.000 203.024,84.000 202.017 C 84.000 201.584,83.619 200.278,83.154 199.115 C 82.688 197.952,82.162 195.830,81.985 194.400 C 81.807 192.970,81.365 189.910,81.002 187.600 C 80.576 184.889,80.264 179.642,80.123 172.800 C 79.817 157.976,80.512 151.108,83.581 138.600 C 83.796 137.720,84.245 135.830,84.578 134.400 C 85.489 130.487,86.588 126.936,87.923 123.600 C 88.583 121.950,89.506 119.637,89.975 118.460 C 90.444 117.283,91.451 115.005,92.214 113.399 C 92.976 111.792,93.600 110.217,93.600 109.899 C 93.600 109.581,94.137 108.528,94.793 107.560 C 95.449 106.592,95.989 105.599,95.993 105.353 C 95.997 105.107,96.783 103.739,97.739 102.312 C 98.696 100.886,100.260 98.297,101.215 96.559 C 103.082 93.163,104.473 91.082,107.972 86.452 C 109.197 84.830,110.560 83.020,111.000 82.429 C 111.440 81.838,113.385 79.789,115.321 77.877 C 120.534 72.730,119.459 72.314,131.420 84.100 M161.772 131.973 C 169.284 133.609,180.282 140.882,181.974 145.332 C 182.553 146.854,182.502 151.569,181.894 152.800 C 179.386 157.876,163.655 155.562,156.065 149.000 C 149.627 143.434,147.926 141.057,147.893 137.575 C 147.843 132.231,153.140 130.093,161.772 131.973 M171.580 169.611 C 180.315 171.988,180.902 179.841,172.663 184.106 C 167.325 186.870,165.171 187.542,160.005 188.059 C 150.220 189.037,143.772 187.326,141.815 183.231 L 140.691 180.880 141.436 178.807 C 142.381 176.181,144.403 174.300,148.652 172.096 C 151.540 170.598,153.747 169.916,159.400 168.774 C 162.119 168.224,167.957 168.626,171.580 169.611 M187.112 195.811 C 191.205 197.026,192.321 203.355,189.262 208.000 C 188.899 208.550,188.377 209.517,188.100 210.150 C 184.297 218.841,169.768 227.818,164.089 224.985 C 159.671 222.780,159.360 216.823,163.350 210.813 C 163.866 210.036,164.663 208.770,165.122 208.000 C 166.679 205.387,174.553 198.400,175.940 198.400 C 176.132 198.400,176.931 197.964,177.716 197.431 C 180.675 195.423,183.921 194.863,187.112 195.811 M240.701 204.813 C 243.604 206.264,247.280 209.857,249.163 213.084 C 249.907 214.358,250.821 215.850,251.194 216.400 C 251.568 216.950,252.102 218.092,252.381 218.939 C 252.659 219.785,253.137 220.955,253.441 221.539 C 253.746 222.122,253.998 223.050,254.002 223.600 C 254.006 224.150,254.277 225.484,254.604 226.564 C 256.609 233.171,253.003 239.343,247.575 238.597 C 242.726 237.930,233.690 227.561,232.168 220.917 C 232.027 220.303,231.549 218.568,231.106 217.063 C 228.290 207.503,233.295 201.113,240.701 204.813 M214.028 209.610 C 217.497 213.787,218.561 222.413,216.641 230.807 C 213.783 243.307,203.619 250.444,200.355 242.243 C 200.083 241.559,199.515 240.498,199.092 239.885 C 197.979 238.269,197.617 227.475,198.540 223.400 C 200.154 216.272,201.504 213.355,204.708 210.073 L 206.815 207.913 209.844 208.066 C 212.736 208.212,212.925 208.282,214.028 209.610 " stroke="none" fill="#2cb36c" fill-rule="evenodd"></path></g></svg>